{"title":"The Boy Next Door 2015 DVD9rip English Klam","uid":12132318,"size":1402815292,"categoryP":"video","categoryS":"movies","magnet":"?xt=urn:btih:3f1e7e93009c56565d412654005fa9aef807198f&amp;dn=The+Boy+Next+Door+2015+DVD9rip+English+Klam&amp;tr=udp%3A%2F%2Ftracker.openbittorrent.com%3A80&amp;tr=udp%3A%2F%2Fopen.demonii.com%3A1337&amp;tr=udp%3A%2F%2Ftracker.coppersurfer.tk%3A6969&amp;tr=udp%3A%2F%2Fexodus.desync.com%3A6969","seeders":5,"leechers":3,"uploader":"Klambake","files":5,"time":1437069570,"description":" &lt;a href=&quot;http://i.imgur.com/rxjnZcG.jpg&quot; rel=&quot;nofollow&quot; target=&quot;_NEW&quot;&gt;http://i.imgur.com/rxjnZcG.jpg&lt;/a&gt;\n\nWith: Jennifer Lopez, Ryan Guzman and Kristin Chenoweth\n\nEen pas gescheiden vrouw (Jennifer Lopez) begint een affaire met haar buurman. Het probleem is echter dat de buurman een tiener is die toevallig ook de vriend is van haar zoon. Wanneer ze probeert een einde te maken aan de verboden relatie ontstaan de problemen.\n\nA recently cheated on married woman falls for a younger man who has moved in next door, but their torrid affair soon takes a dangerous turn.\n &lt;a href=&quot;\nhttp://www.imdb.com/title/tt3181822&quot; rel=&quot;nofollow&quot; target=&quot;_NEW&quot;&gt;\nhttp://www.imdb.com/title/tt3181822&lt;/a&gt;\t\n\n--------------------- Dutch Friends 4ever ---------------------\n---------------------------------------------------------------\n- Bezoek ook eens mijn vrienden op: &lt;a href=&quot; http://www.Film-Test.nl&quot; rel=&quot;nofollow&quot; target=&quot;_NEW&quot;&gt; http://www.Film-Test.nl&lt;/a&gt; --\n----- voor mijn Nederlandse Sync. ondertitels ---- en meer ----\n------- http://www.Film-Test.nl ---- Over Films en meer -------\n---------------------------------------------------------------\n &lt;a href=&quot;\nhttp://i.imgur.com/7aWfHyN.jpg&quot; rel=&quot;nofollow&quot; target=&quot;_NEW&quot;&gt;\nhttp://i.imgur.com/7aWfHyN.jpg&lt;/a&gt; &lt;a href=&quot;\nhttp://i.imgur.com/wX3XgHK.jpg&quot; rel=&quot;nofollow&quot; target=&quot;_NEW&quot;&gt;\nhttp://i.imgur.com/wX3XgHK.jpg&lt;/a&gt; &lt;a href=&quot;\nhttp://i.imgur.com/HKdBtkL.jpg&quot; rel=&quot;nofollow&quot; target=&quot;_NEW&quot;&gt;\nhttp://i.imgur.com/HKdBtkL.jpg&lt;/a&gt;\n\nGeneral:\n\nComplete name                            : The Boy Next DoorThe Boy Next Door.avi\nFormat                                   : AVI\nFormat/Info                              : Audio Video Interleave\nFile size                                : 1.31 GiB\nDuration                                 : 1h 26mn\nOverall bit rate                         : 2 153 Kbps\n\nVideo:\n\nFormat                                   : MPEG-4 Visual\nFormat profile                           : Simple@L3\nFormat settings, BVOP                    : No\nFormat settings, QPel                    : No\nFormat settings, GMC                     : No warppoints\nFormat settings, Matrix                  : Default (H.263)\nCodec ID                                 : XVID\nCodec ID/Hint                            : XviD\nDuration                                 : 1h 26mn\nBit rate                                 : 1 758 Kbps\nWidth                                    : 720 pixels\nHeight                                   : 304 pixels\nDisplay aspect ratio                     : 2.35:1\nFrame rate                               : 25.000 fps\nColor space                              : YUV\nChroma subsampling                       : 4:2:0\nBit depth                                : 8 bits\nScan type                                : Progressive\nCompression mode                         : Lossy\nBits/(Pixel*Frame)                       : 0.321\nStream size                              : 1.07 GiB (82%)\nWriting library                          : XviD 1.1.2 (UTC 2006-11-01)\n\nAudio:\n\nFormat                                   : AC-3\nFormat/Info                              : Audio Coding 3\nMode extension                           : CM (complete main)\nFormat settings, Endianness              : Big\nCodec ID                                 : 2000\nDuration                                 : 1h 26mn\nSource duration                          : 1h 26mn\nBit rate mode                            : Constant\nBit rate                                 : 384 Kbps\nChannel(s)                               : 6 channels\nChannel positions                        : Front: L C R, Side: L R, LFE\nSampling rate                            : 48.0 KHz\nBit depth                                : 16 bits\nCompression mode                         : Lossy\nStream size                              : 239 MiB (18%)\nAlignment                                : Aligned on interleaves\nInterleave, duration                     : 32 ms (0.80 video frame)","torrent":{"xt":"urn:btih:3f1e7e93009c56565d412654005fa9aef807198f","amp;dn":"The+Boy+Next+Door+2015+DVD9rip+English+Klam","amp;tr":["udp%3A%2F%2Ftracker.openbittorrent.com%3A80","udp%3A%2F%2Fopen.demonii.com%3A1337","udp%3A%2F%2Ftracker.coppersurfer.tk%3A6969","udp%3A%2F%2Fexodus.desync.com%3A6969"],"infoHash":"3f1e7e93009c56565d412654005fa9aef807198f","infoHashBuffer":{"type":"Buffer","data":[63,30,126,147,0,156,86,86,93,65,38,84,0,95,169,174,248,7,25,143]},"announce":[],"urlList":[]}}